<?xml version="1.0" encoding="UTF-8" standalone="no"?>
<svg
   xmlns:dc="http://purl.org/dc/elements/1.1/"
   xmlns:cc="http://creativecommons.org/ns#"
   xmlns:rdf="http://www.w3.org/1999/02/22-rdf-syntax-ns#"
   xmlns:svg="http://www.w3.org/2000/svg"
   xmlns="http://www.w3.org/2000/svg"
   xmlns:sodipodi="http://sodipodi.sourceforge.net/DTD/sodipodi-0.dtd"
   xmlns:inkscape="http://www.inkscape.org/namespaces/inkscape"
   viewBox="0 0 576 512"
   version="1.1"
   id="svg12"
   sodipodi:docname="leaf.svg"
   inkscape:version="1.0beta2 (2b71d25, 2019-12-03)">
  <metadata
     id="metadata18">
    <rdf:RDF>
      <cc:Work
         rdf:about="">
        <dc:format>image/svg+xml</dc:format>
        <dc:type
           rdf:resource="http://purl.org/dc/dcmitype/StillImage" />
      </cc:Work>
    </rdf:RDF>
  </metadata>
  <defs
     id="defs16" />
  <sodipodi:namedview
     pagecolor="#ffffff"
     bordercolor="#666666"
     inkscape:document-rotation="0"
     borderopacity="1"
     objecttolerance="10"
     gridtolerance="10"
     guidetolerance="10"
     inkscape:pageopacity="0"
     inkscape:pageshadow="2"
     inkscape:window-width="1280"
     inkscape:window-height="755"
     id="namedview14"
     showgrid="false"
     inkscape:zoom="0.92768596"
     inkscape:cx="353.312"
     inkscape:cy="200.09826"
     inkscape:window-x="0"
     inkscape:window-y="23"
     inkscape:window-maximized="0"
     inkscape:current-layer="svg12" />
  <path
     style="stroke-width:1.1;stroke-miterlimit:4;stroke-dasharray:none"
     d="M546.2 9.7c-5.6-12.5-21.6-13-28.3-1.2C486.9 62.4 431.4 96 368 96h-80C182 96 96 182 96 288c0 7 .8 13.7 1.5 20.5C161.3 262.8 253.4 224 384 224c8.8 0 16 7.2 16 16s-7.2 16-16 16C132.6 256 26 410.1 2.4 468c-6.6 16.3 1.2 34.9 17.5 41.6 16.4 6.8 35-1.1 41.8-17.3 1.5-3.6 20.9-47.9 71.9-90.6 32.4 43.9 94 85.8 174.9 77.2C465.5 467.5 576 326.7 576 154.3c0-50.2-10.8-102.2-29.8-144.6z"
     id="path10" />
  <path
     inkscape:connector-curvature="0"
     id="path20"
     d="m 21.21449,509.39751 c -5.971286,-2.52059 -9.269565,-4.81794 -12.9733928,-9.03637 -6.1766191,-7.03478 -8.8842152,-17.3518 -6.971629,-26.56467 1.258445,-6.0619 11.8107088,-27.39624 19.8175918,-40.06678 22.713423,-35.94297 56.773767,-71.44959 94.11207,-98.10823 68.76834,-49.09895 154.92997,-76.24193 249.47048,-78.5892 11.23532,-0.27896 21.89988,-0.8765 23.69902,-1.32786 4.02501,-1.0098 9.1941,-5.41782 10.76663,-9.18141 2.92101,-6.99096 0.29781,-15.90466 -5.87906,-19.97721 l -3.71288,-2.44799 -20.91224,0.12879 c -95.91234,0.59069 -191.38366,28.82528 -262.4752,77.62416 -4.25115,2.91809 -7.89194,5.14304 -8.090638,4.94433 -1.034492,-1.03449 -1.681776,-19.91176 -1.047227,-30.54108 4.946935,-82.86599 63.514115,-153.47981 144.215265,-173.87878 19.41459,-4.90746 20.47839,-4.979088 83.88455,-5.648034 49.15213,-0.518563 60.64802,-0.871339 68.23769,-2.09402 19.39657,-3.124747 35.56867,-8.269165 52.1562,-16.591125 29.26858,-14.684035 50.80653,-34.823142 71.56328,-66.915381 3.64477,-5.6352221 5.2829,-7.343539 8.63712,-9.0071805 5.61954,-2.78721054 10.73552,-2.07507421 15.40609,2.1445063 3.91499,3.5369576 8.97418,14.4546312 15.06776,32.5161072 20.64772,61.200058 24.79308,128.916947 11.83935,193.402597 -25.37559,126.32372 -112.033,220.27326 -224.43817,243.32443 -17.6222,3.61382 -29.64707,4.91447 -50.19768,5.42955 -21.4123,0.53668 -32.33232,-0.45528 -49.11375,-4.46143 -40.56718,-9.6844 -78.7741,-33.83895 -104.95018,-66.34986 l -5.80657,-7.21182 -7.6437,6.87084 c -26.141169,23.49803 -48.851538,52.36799 -61.996828,78.81184 -2.979862,5.99446 -6.952342,12.64221 -8.827734,14.77277 -7.841316,8.90821 -23.148129,12.54014 -33.836218,8.02851 z"
     style="fill:#007bff;stroke:#007bff;stroke-width:1.1;fill-opacity:1;stroke-opacity:1;stroke-miterlimit:4;stroke-dasharray:none" />
</svg>
