<?xml version="1.0" standalone="no"?>
<!DOCTYPE svg PUBLIC "-//W3C//DTD SVG 20010904//EN"
 "http://www.w3.org/TR/2001/REC-SVG-20010904/DTD/svg10.dtd">
<svg version="1.0" xmlns="http://www.w3.org/2000/svg"
 width="576.000000pt" height="576.000000pt" viewBox="0 0 576.000000 576.000000"
 preserveAspectRatio="xMidYMid meet">
<metadata>
Created by potrace 1.11, written by Peter Selinger 2001-2013
</metadata>
<g transform="translate(0.000000,576.000000) scale(0.100000,-0.100000)"
fill="#000000" stroke="none">
<path d="M5260 5430 c0 -3 -10 -10 -22 -15 -13 -6 -61 -67 -108 -137 -47 -69
-103 -148 -125 -174 -35 -43 -192 -201 -227 -230 -42 -34 -170 -124 -213 -150
-52 -32 -239 -124 -259 -129 -6 -1 -24 -8 -41 -14 -16 -7 -37 -14 -46 -16 -8
-2 -40 -10 -70 -19 -122 -37 -231 -54 -394 -61 -60 -3 -116 -7 -122 -10 -7 -2
-13 0 -13 6 0 6 -4 8 -8 5 -11 -7 -43 -7 -437 -7 -474 1 -542 -4 -755 -56
-139 -33 -374 -121 -391 -146 -3 -5 -9 -8 -13 -8 -11 2 -111 -51 -114 -60 -2
-5 -8 -9 -13 -9 -13 0 -116 -69 -199 -133 -60 -47 -250 -232 -295 -288 -10
-13 -43 -58 -72 -99 -29 -41 -57 -79 -61 -85 -10 -12 -61 -102 -97 -170 -54
-103 -166 -415 -149 -415 3 0 0 -8 -5 -18 -6 -11 -13 -41 -17 -68 -3 -27 -8
-52 -10 -55 -19 -32 -25 -509 -6 -509 1 0 44 28 95 62 50 35 99 68 108 73 182
107 294 169 420 229 156 76 397 176 422 176 7 0 17 4 23 9 7 6 132 49 164 56
3 0 37 10 75 22 60 19 189 53 251 68 10 2 37 9 59 14 22 6 54 12 70 15 29 6
51 10 105 21 14 2 39 7 55 10 17 3 41 7 55 9 14 3 61 10 105 16 44 6 91 13
105 15 55 8 173 20 310 31 105 8 451 13 481 7 48 -9 105 -70 114 -120 9 -59
-1 -96 -38 -136 -36 -38 -79 -58 -122 -57 -86 3 -413 -12 -520 -24 -22 -2 -70
-7 -107 -11 -37 -3 -75 -7 -85 -9 -10 -2 -40 -7 -68 -10 -69 -10 -106 -16
-135 -21 -14 -3 -38 -7 -55 -10 -35 -5 -159 -30 -195 -39 -14 -3 -38 -9 -55
-11 -16 -3 -52 -12 -80 -20 -95 -28 -170 -49 -180 -51 -27 -5 -290 -96 -316
-109 -16 -9 -32 -16 -36 -16 -5 -1 -18 -5 -31 -10 -13 -5 -25 -9 -27 -9 -20 0
-469 -223 -485 -241 -3 -3 -32 -20 -65 -38 -33 -18 -81 -49 -108 -67 -26 -19
-52 -34 -57 -34 -6 0 -10 -4 -10 -8 0 -5 -10 -14 -22 -19 -13 -6 -32 -18 -43
-27 -11 -8 -65 -50 -120 -92 -227 -174 -475 -419 -641 -634 -32 -41 -61 -77
-64 -80 -13 -12 -130 -191 -130 -199 0 -5 -3 -11 -7 -13 -19 -8 -152 -268
-178 -346 -36 -111 0 -241 90 -327 61 -58 121 -80 210 -79 92 1 94 1 159 34
66 33 107 85 170 210 42 86 132 238 168 285 138 181 206 262 313 369 120 121
201 196 209 196 2 0 29 -31 60 -69 88 -110 214 -231 331 -320 22 -17 45 -35
52 -41 7 -5 16 -10 22 -10 5 0 11 -3 13 -8 2 -4 28 -23 58 -41 30 -19 66 -41
80 -50 14 -8 27 -16 30 -17 3 0 48 -21 100 -46 52 -25 121 -55 153 -67 78 -29
268 -77 337 -86 30 -4 64 -9 75 -11 11 -3 68 -7 127 -9 59 -3 111 -5 115 -6 4
-1 10 -1 13 0 3 1 43 3 90 5 85 4 207 15 245 22 11 2 40 7 65 10 74 9 119 18
250 51 102 25 255 72 315 98 105 43 153 66 263 122 106 54 347 203 362 223 3
4 24 20 47 37 116 84 350 310 458 444 75 92 99 125 163 217 40 56 72 104 72
106 0 2 24 43 53 92 84 141 195 374 240 504 9 25 25 70 37 100 11 30 32 96 46
145 14 50 27 97 30 105 7 24 54 232 58 260 4 23 8 47 21 125 3 17 8 50 11 75
3 25 7 55 9 68 27 157 27 658 0 877 -13 106 -35 240 -49 300 -2 6 -6 33 -11
60 -4 28 -12 56 -17 63 -6 6 -8 12 -5 12 15 0 -98 369 -144 467 -10 24 -19 50
-19 58 0 8 -4 15 -10 15 -5 0 -9 3 -8 8 7 33 -55 105 -104 121 -35 12 -108 12
-108 1z"/>
</g>
</svg>
