<?xml version="1.0" standalone="no"?>
<!DOCTYPE svg PUBLIC "-//W3C//DTD SVG 20010904//EN"
 "http://www.w3.org/TR/2001/REC-SVG-20010904/DTD/svg10.dtd">
<svg version="1.0" xmlns="http://www.w3.org/2000/svg"
 width="576.000000pt" height="576.000000pt" viewBox="0 0 576.000000 576.000000"
 preserveAspectRatio="xMidYMid meet">
<metadata>
Created by potrace 1.11, written by Peter Selinger 2001-2013
</metadata>
<g transform="translate(0.000000,576.000000) scale(0.100000,-0.100000)"
fill="#000000" stroke="none">
<path d="M5254 5426 c-30 -14 -94 -84 -94 -105 0 -6 -4 -11 -10 -11 -5 0 -10
-4 -10 -10 0 -9 -64 -106 -80 -120 -3 -3 -21 -25 -40 -50 -147 -191 -344 -351
-572 -466 -70 -35 -236 -103 -268 -109 -8 -2 -35 -9 -60 -16 -53 -15 -54 -15
-100 -23 -19 -3 -46 -8 -60 -11 -55 -12 -115 -16 -330 -20 -124 -2 -227 -5
-230 -6 -3 -1 -8 -1 -11 -1 -9 1 -102 2 -121 1 -10 0 -111 0 -225 0 -217 1
-326 -3 -409 -14 -27 -4 -60 -8 -74 -9 -38 -5 -261 -63 -295 -77 -16 -7 -36
-13 -43 -15 -26 -5 -147 -59 -232 -102 -258 -134 -488 -334 -672 -586 -21 -28
-42 -57 -48 -63 -6 -7 -7 -13 -3 -13 4 0 3 -4 -3 -8 -13 -8 -71 -110 -118
-209 -66 -137 -131 -333 -151 -453 -3 -19 -8 -46 -10 -60 -20 -105 -30 -283
-21 -400 2 -25 4 -59 5 -77 1 -26 4 -30 20 -26 11 3 27 14 37 24 9 10 20 19
24 19 4 0 36 19 71 43 90 60 168 107 173 104 2 -1 12 6 23 15 27 25 416 221
463 233 3 1 16 6 30 12 171 73 503 184 620 208 8 2 15 4 15 5 0 2 21 7 60 15
17 3 46 10 65 15 19 5 46 11 60 14 14 3 48 11 75 16 28 6 64 13 80 16 54 9 69
11 110 18 23 3 52 9 65 11 28 5 89 13 250 31 129 14 341 25 549 27 137 2 152
-1 193 -43 47 -48 57 -146 19 -196 -48 -65 -67 -69 -351 -78 -141 -5 -210 -9
-335 -22 -33 -3 -76 -7 -95 -9 -19 -2 -51 -6 -70 -9 -19 -3 -57 -8 -84 -11
-27 -3 -52 -8 -55 -9 -3 -2 -28 -6 -56 -10 -27 -3 -63 -9 -80 -12 -16 -4 -37
-7 -45 -8 -9 -1 -21 -5 -28 -10 -6 -4 -12 -5 -12 -3 0 3 -37 -4 -82 -14 -46
-11 -94 -22 -108 -25 -106 -22 -487 -144 -577 -185 -23 -10 -44 -19 -47 -19
-22 0 -467 -220 -486 -240 -3 -3 -21 -14 -40 -24 -68 -37 -237 -150 -345 -231
-236 -177 -480 -412 -653 -629 -31 -39 -60 -73 -63 -76 -4 -3 -50 -70 -103
-149 -99 -148 -210 -356 -240 -448 -48 -147 25 -313 169 -383 41 -20 66 -24
135 -25 75 0 92 4 144 30 71 36 115 85 168 190 137 272 288 476 530 715 53 52
113 110 135 128 l38 33 18 -23 c91 -116 214 -241 320 -325 40 -32 74 -60 77
-63 18 -19 249 -160 262 -160 5 0 22 -8 36 -18 35 -24 240 -105 295 -117 10
-2 27 -7 37 -10 10 -3 28 -8 39 -10 12 -3 31 -7 44 -11 22 -5 47 -10 102 -19
17 -3 41 -7 55 -10 14 -3 78 -7 143 -10 65 -3 121 -6 125 -6 4 -1 9 -1 12 0 3
1 44 3 91 5 101 5 251 19 309 30 14 3 43 8 65 11 22 3 47 7 55 10 8 2 26 6 40
9 85 14 355 97 447 137 24 10 44 18 46 18 13 -4 319 165 411 226 66 44 126 85
135 90 8 6 24 18 35 27 12 10 55 46 96 80 114 95 261 243 365 369 44 53 155
199 155 204 0 3 18 30 40 60 22 30 40 56 40 59 0 2 22 41 49 85 48 78 175 331
201 401 7 19 17 39 22 44 4 6 8 16 8 24 0 8 6 28 14 45 15 34 28 70 27 75 -1
1 6 19 15 40 8 20 17 44 19 52 2 8 13 49 25 90 24 82 57 209 64 249 3 14 7 37
11 51 3 14 8 36 10 50 2 14 6 36 9 50 6 34 16 97 21 140 3 19 7 55 10 79 16
121 19 198 19 446 -1 238 -4 308 -20 430 -2 17 -5 49 -8 72 -2 23 -7 55 -10
70 -3 15 -8 48 -12 73 -3 24 -7 48 -10 51 -2 4 -6 24 -10 45 -19 130 -124 484
-181 614 -57 130 -81 162 -130 181 -34 13 -82 11 -119 -5z"/>
</g>
</svg>
