<?xml version="1.0" standalone="no"?>
<!DOCTYPE svg PUBLIC "-//W3C//DTD SVG 20010904//EN"
 "http://www.w3.org/TR/2001/REC-SVG-20010904/DTD/svg10.dtd">
<svg version="1.0" xmlns="http://www.w3.org/2000/svg"
 width="700.000000pt" height="700.000000pt" viewBox="0 0 700.000000 700.000000"
 preserveAspectRatio="xMidYMid meet">
<g transform="translate(0.000000,700.000000) scale(0.100000,-0.100000)"
fill="#000000" stroke="none">
<path d="M3369 5835 c-9 -22 -214 -512 -454 -1090 -240 -577 -488 -1173 -551
-1323 -63 -151 -114 -278 -114 -283 0 -5 241 -8 566 -6 l566 2 -6 -62 c-3 -35
-10 -84 -16 -110 -5 -27 -12 -68 -15 -93 -3 -25 -8 -61 -11 -80 -4 -29 -24
-157 -39 -250 -2 -14 -7 -45 -10 -70 -3 -25 -8 -56 -10 -70 -17 -106 -35 -222
-39 -255 -8 -53 -17 -115 -22 -140 -2 -11 -6 -42 -9 -70 -3 -27 -8 -57 -10
-65 -2 -8 -7 -35 -10 -60 -3 -25 -8 -56 -11 -70 -2 -14 -6 -38 -8 -55 -2 -16
-7 -46 -10 -65 -3 -19 -8 -51 -11 -70 -2 -19 -6 -44 -9 -55 -2 -11 -7 -47 -12
-80 -4 -33 -8 -62 -9 -65 -1 -3 -5 -30 -9 -60 -5 -30 -10 -62 -11 -70 -2 -8
-6 -37 -9 -65 -4 -27 -9 -57 -11 -65 -2 -8 -6 -35 -9 -60 -4 -25 -10 -69 -15
-97 -4 -29 -5 -53 -1 -53 4 0 17 19 29 43 11 23 43 85 72 137 69 128 330 614
386 720 25 47 53 99 63 115 9 17 41 75 70 130 92 172 106 198 142 265 19 36
54 101 78 145 128 239 190 355 212 395 14 25 46 86 73 135 61 115 121 226 155
290 15 28 49 91 75 140 26 50 59 110 73 135 26 47 65 121 137 255 23 44 63
119 89 166 25 48 46 89 46 93 0 3 -204 6 -453 6 l-453 0 453 906 c250 499 451
909 448 913 -4 3 -311 6 -682 6 l-676 1 -18 -41z"/>
</g>
</svg>
