<svg id="Ebene_1" data-name="Ebene 1" xmlns="http://www.w3.org/2000/svg" viewBox="0 0 411.02 492.41"><defs><style>.cls-1{fill:#95d5fe;}.cls-2{fill:#8bc6ed;}.cls-3{fill:#3c4958;}.cls-4{fill:#f9f9f9;}.cls-5{fill:#fdfdfd;}.cls-6{fill:#94d3fc;}.cls-12,.cls-7{fill:#a5a7a7;}.cls-7{stroke:#a5a7a7;}.cls-14,.cls-15,.cls-7{stroke-linecap:round;stroke-linejoin:round;}.cls-8{fill:#404e5d;}.cls-9{fill:#3c4758;}.cls-10{fill:#dcccc8;}.cls-11,.cls-14,.cls-15,.cls-16{fill:#e3e3e3;}.cls-11,.cls-14,.cls-15{stroke:#777c80;}.cls-11{stroke-miterlimit:10;}.cls-13{fill:#777c80;}.cls-15{stroke-width:0.75px;}</style></defs><title>Logo_network_side</title><path class="cls-1" d="M449.72,314.74c-14,.54-24.11-6.16-30.41-18.09-13.13-24.86-22.92-51-26.84-79-1.78-12.7,1.07-24.61,11.64-33.4,1.71-1.43,3.58-2.68,5.47-4.08-17.35-16.38-37.83-26.54-60-33.22-35.48-10.7-72.06-12.27-108.79-11.71-8.62.13-17.29.87-25.63,3.5-.35,1.87-1.95,2.62-3.28,3.57-22.92,16.29-34.45,39.12-37.65,66.49-3.47,29.69,2.9,58.23,11,86.46,6.62,23,14.59,45.6,19.33,69.2A143.51,143.51,0,0,1,206,415.85l-6.74,1.29-34.21,36.25,15.83,62.81L191,557.08l14.13,6.38L223.58,560c.18.21.37.42.55.64,3.9.91,9-.39,10.17,5.55.34.35,1,.85,1,1-1.78,4.37.67,4.89,4.26,5.6,21.14,4.14,42.36,4.14,63.65,1.73,28.84-3.27,55.51-12.47,78.62-30.35,30.22-23.36,48.17-54.8,57.15-91.36,10.72-43.69,14.69-88.26,15.35-133.17C454.34,316.14,453.64,314.59,449.72,314.74ZM190.23,259.67c-4.88-31.17,11-59.7,40.46-74.39,51.16-25.47,109.08,4.85,117.19,61.4.52,3.61.51,7.3.65,9.56-.73,36.14-19.83,63.63-50.54,72.84-23.79,7.12-46.25,2.36-66.9-10.62C209.27,304.74,194.31,285.67,190.23,259.67Z" transform="translate(-89.28 -107.03)"/><path class="cls-2" d="M198,522.81h0c-9.8-26.41-9.6-53.19.43-79.06,10.12-26.13,11.55-52.06,6.09-79.25-4.74-23.6-12.71-46.18-19.33-69.2-8.11-28.23-14.48-56.77-11-86.46,3.2-27.37,14.73-50.2,37.65-66.49,1.33-.95,2.93-1.7,3.28-3.57-13.76,2.46-26.21,8.3-38.37,14.88-3.94,2.14-8.39,4-5.24,9.9a2.92,2.92,0,0,1,.07,1.48c-.12,1.23-.52,2.34-1.93,2.54-1.95.28-1.49-1.32-1.69-2.33-.59-2.95-1-6-2.66-8.54-11.5-18.5-37.24-28.71-57.94-19.49-10.53,4.69-16.19,14.44-14,24.92,2,9.41,7.24,16.76,16.3,20.74,7.16,3.15,14.32,6.22,21,10.44a21.06,21.06,0,0,0,10.28,3.53c.93,0,2.09,0,2,1.55a5.29,5.29,0,0,1-5.13,1.17c-4.3-1-5.63,1.19-6.74,4.87a159.38,159.38,0,0,0-6.3,42.3c-.56,23.5,5.16,45.83,11.95,68,7,23,10.94,46.33,7.43,70.39-2.23,15.3-5.08,30.51-7.4,45.8-3.1,20.36-4.24,40.74,1.52,60.89C146.6,521,161,545.38,191,557.08l14.13,6.38c4.46,1,9.27,5.44,13-1.35.25-.46,1.82-.18,2.78-.25l3.17-1.2-1.1-1.27A191.67,191.67,0,0,1,198,522.81ZM145.31,173.26c-6.91-5.25-6.91-5.24-13.58.38-1.58,1.33-3.2,2.6-4.8,3.9.26-3.72,3.23-4.76,5.36-6.6,3.8-3.28,3.64-4.34-.9-6.12-3.68-1.44-7.21-3.63-11.72-2,5-5.62,21.68,1,27.33,10.43C146.45,173.89,145.88,173.69,145.31,173.26Z" transform="translate(-89.28 -107.03)"/><path class="cls-3" d="M182.92,559.56C149,543,136,512.76,130.21,478c-1.94-11.58-1.14-23.25.11-34.86.33-3.05-.15-5.36-2.82-7.37-2.46-1.85-4-4.66-3.11-7.92.84-3.08,3.62-3.07,6.15-3s2.71-2,3.12-3.69c8.46-36,9.93-71.63-2.09-107.34-7.72-22.94-12.78-46.52-11.44-71.09.77-14.21,2.78-28.16,7.3-41.65,1.07-3.19.42-4.88-2.37-6.5a104.55,104.55,0,0,0-13.1-6.11C98.69,183.08,90.2,173.69,89.33,159c-.66-11,5.19-19,14.56-23.73,18.27-9.18,35.53-5.32,51.74,5.74a37.82,37.82,0,0,1,9.31,9c1.73,2.4,3.22,3,6.12,1.23a142.06,142.06,0,0,1,57.67-19.7c13.45-1.5,27-.84,40.42-.29,18.3.75,36.55,2.06,54.58,5.51,2.42.47,3.92,0,4.76-2.83,5.24-17.62,27.43-27.55,42.35-26.83,13.8.67,21.52,12.35,16.73,25.4-2.29,6.25-4.55,12.47-6.54,18.82-.78,2.51-.34,3.51,1.82,4.64a148.82,148.82,0,0,1,30,20.51,4.9,4.9,0,0,0,4.57,1.18c29.8-5.46,51.62,7.35,68.84,30.33,2.74,3.66,5.79,7.34,6.53,12.15-1-.51-2-1.09-3.09-1.52a7.8,7.8,0,0,0-10,3.9,8,8,0,0,0,13.87,7.92c1.16-1.75,1.27-3.73,1.54-5.69,5.89,12.94,6.34,26.54,3.37,40-4.68,21.31-15.72,38.37-35.89,48.32-2.78,1.37-2.68,3.36-2.75,5.7a768.33,768.33,0,0,1-11.94,115.54,14.4,14.4,0,0,1-.42,1.95c-2.44,7.24-3.15,13.51,6,17.07,4,1.56,4.46,6.05,3,10-1.6,4.41-5.28,5.06-9.43,4.46-7.33-1.05-7.3-1-9.76,6-8.09,23.07-19.92,43.95-37,61.59a117.36,117.36,0,0,1-27.89,21.7c-3.33,1.82-4,3.81-2.75,7.24a35.22,35.22,0,0,1,2.34,11.7,13.89,13.89,0,0,1-3,8.81c-3.74,4.79-7.37,5-11.65.69a34.79,34.79,0,0,1-8.08-12.49c-1.15-3.18-2.69-3.47-5.6-2.42-23.45,8.49-47.71,11.66-72.58,11.15A191,191,0,0,1,236,578c-4.13-.86-6.26.22-7.42,4.16a97.76,97.76,0,0,1-3.82,10.82c-2.12,5-6.26,7.25-10.64,6.3-4.56-1-6.92-4.45-7-10.1a31.91,31.91,0,0,1,3.15-13.51c1.27-2.87.46-4.08-2.35-5.18Zm35.26,2.55c.25-.46,1.82-.18,2.78-.25-4,5.13-6.42,11.18-9.14,17a19.29,19.29,0,0,0-1.65,9.72c.28,3.56,2.49,5.29,5.74,5.87s4.72-1.34,5.52-4.3a40.48,40.48,0,0,1,8.31-15.73,27.21,27.21,0,0,0,4.56-8.23c.34.35,1,.85,1,1-1.78,4.37.67,4.89,4.26,5.6,21.14,4.14,42.36,4.14,63.65,1.73,28.84-3.27,55.51-12.47,78.62-30.35,30.22-23.36,48.17-54.8,57.15-91.36,10.72-43.69,14.69-88.26,15.35-133.17,0-3.55-.65-5.1-4.57-4.95-14,.54-24.11-6.16-30.41-18.09-13.13-24.86-22.92-51-26.84-79-1.78-12.7,1.07-24.61,11.64-33.4,1.71-1.43,3.58-2.68,5.47-4.08-17.35-16.38-37.83-26.54-60-33.22-35.48-10.7-72.06-12.27-108.79-11.71-8.62.13-17.29.87-25.63,3.5-13.76,2.46-26.21,8.3-38.37,14.88-3.94,2.14-8.39,4-5.24,9.9a2.92,2.92,0,0,1,.07,1.48c-.12,1.23-.52,2.34-1.93,2.54-1.95.28-1.49-1.32-1.69-2.33-.59-2.94-1-6-2.66-8.54-11.5-18.5-37.24-28.71-57.94-19.49-10.53,4.69-16.19,14.44-14,24.92,2,9.41,7.24,16.76,16.3,20.74,7.16,3.15,14.32,6.22,21,10.44a21.06,21.06,0,0,0,10.28,3.53c.93,0,2.09,0,2,1.55a5.29,5.29,0,0,1-5.13,1.17c-4.3-1-5.63,1.19-6.74,4.87a159.38,159.38,0,0,0-6.3,42.3c-.56,23.5,5.16,45.83,11.95,68,7,23,10.94,46.33,7.43,70.39-2.23,15.3-5.08,30.51-7.4,45.8-3.1,20.36-4.24,40.74,1.52,60.89,7.86,27.48,25,52.16,52,64.73a34.4,34.4,0,0,0,9.5,2.86ZM495,240.59c-7.8,8.54-15.21,10.28-23,6.06a16.59,16.59,0,0,1,.57-29.07c4.23-2.36,8.69-1.92,13.83-1.07-11.62-19-27.09-31.52-48.56-35.51-17.41-3.24-31.88,3-38.46,16.2-3.39,6.78-3.95,14-3.47,21.41,1.35,20.59,8.62,39.5,16.82,58.11,4,9,8.49,17.7,15.64,24.73,10.27,10.09,27.84,12.32,39.49,3.9C489.54,289.67,497,267.61,495,240.59ZM367.09,109.84a44.83,44.83,0,0,0-6.15,1c-12.32,3.4-22.75,9.36-28.32,21.62-1.61,3.55-1.81,5.77,3.28,6.76a160.45,160.45,0,0,1,37.85,12.33c2.8,1.32,3.82.38,4.44-2.15A105.49,105.49,0,0,1,383.91,133C389.17,120.77,381.6,109.72,367.09,109.84Zm2.08,465.61c-.08-4.2-1.63-8.06-2.79-12-.35-1.17-.68-2-2.37-1.62-12.54,2.7-14.95,8.85-7.1,18.53,1.86,2.29,3.84,5.27,7.26,4C367.94,582.9,369.3,579.44,369.17,575.45ZM447,465.66c4.59.09,6.32-2.57,6.83-6.17.43-3-5.94-9.58-8.51-8.18-3.7,2-3.47,7.13-4,10.89C440.89,465.67,445.23,464.66,447,465.66Zm-315.9-29.74c.11-3.23,2.59-5.79-.07-8.17-.69-.62-2.34-.14-3,1C126.45,431.75,128.39,433.53,131.14,435.92Z" transform="translate(-89.28 -107.03)"/><path class="cls-4" d="M495.13,224.71c-.27,2-.38,3.94-1.54,5.69a8,8,0,1,1-3.86-11.82c1.06.43,2.06,1,3.09,1.52a.75.75,0,0,0,.42.59l.77,1.11C494.39,222.77,494.76,223.74,495.13,224.71Z" transform="translate(-89.28 -107.03)"/><path class="cls-3" d="M494,221.8l-.77-1.11A.88.88,0,0,1,494,221.8Z" transform="translate(-89.28 -107.03)"/><path class="cls-5" d="M495,240.59c2,27-5.43,49.08-27.09,64.76-11.65,8.42-29.22,6.19-39.49-3.9-7.15-7-11.67-15.73-15.64-24.73-8.2-18.61-15.47-37.52-16.82-58.11-.48-7.37.08-14.63,3.47-21.41C406,184,420.45,177.76,437.86,181c21.47,4,36.94,16.46,48.56,35.51-5.14-.85-9.6-1.29-13.83,1.07a16.59,16.59,0,0,0-.57,29.07C479.76,250.87,487.17,249.13,495,240.59Z" transform="translate(-89.28 -107.03)"/><path class="cls-6" d="M367.09,109.84c14.51-.12,22.08,10.93,16.82,23.12a105.49,105.49,0,0,0-5.72,16.43c-.62,2.53-1.64,3.47-4.44,2.15a160.45,160.45,0,0,0-37.85-12.33c-5.09-1-4.89-3.21-3.28-6.76,5.57-12.26,16-18.22,28.32-21.62A44.83,44.83,0,0,1,367.09,109.84Zm5.23,28.53c-.93-.85-2.8-2.05-2.64-2.51,1-2.79,3.92-3.86,6.25-5.78-5.66.48-11.73,6.51-12.27,12.56C365.57,138.63,367.82,136.28,372.32,138.37Z" transform="translate(-89.28 -107.03)"/><path class="cls-7" d="M224.13,560.66c3.9.91,9-.39,10.17,5.55a27.21,27.21,0,0,1-4.56,8.23,40.48,40.48,0,0,0-8.31,15.73c-.8,3-2.17,4.9-5.52,4.3s-5.46-2.31-5.74-5.87a19.29,19.29,0,0,1,1.65-9.72c2.72-5.84,5.1-11.89,9.14-17Z" transform="translate(-89.28 -107.03)"/><path class="cls-7" d="M369.17,575.46c.13,4-1.23,7.44-5,8.87-3.42,1.29-5.4-1.69-7.26-4-7.85-9.68-5.44-15.83,7.1-18.53,1.69-.37,2,.45,2.37,1.62C367.54,567.39,369.09,571.25,369.17,575.46Z" transform="translate(-89.28 -107.03)"/><path class="cls-7" d="M447,465.66c-1.81-1-6.15,0-5.67-3.46.52-3.76.29-8.87,4-10.89,2.57-1.4,8.94,5.14,8.51,8.18C453.36,463.09,451.63,465.75,447,465.66Z" transform="translate(-89.28 -107.03)"/><path class="cls-7" d="M131.14,435.92c-2.75-2.39-4.69-4.17-3-7.18.63-1.13,2.28-1.61,3-1C133.73,430.13,131.25,432.69,131.14,435.92Z" transform="translate(-89.28 -107.03)"/><path class="cls-8" d="M348.53,256.24c-.73,36.14-19.83,63.63-50.54,72.84-23.79,7.12-46.25,2.36-66.9-10.62-21.82-13.72-36.78-32.79-40.86-58.79-4.88-31.17,11-59.7,40.46-74.39,51.16-25.47,109.08,4.85,117.19,61.4C348.4,250.29,348.39,254,348.53,256.24Zm-4.09,3.31c-.34-27.37-9.76-47.61-29.09-62.22-24.2-18.31-51.14-20.37-78.87-9.08-30.83,12.55-46.75,41.66-40.17,74.15,5.55,27.37,22.88,46.17,47.55,58.05,19,9.14,38.95,10.56,58.49,1.89C330.61,309.79,343.14,286.65,344.44,259.55Z" transform="translate(-89.28 -107.03)"/><path class="cls-8" d="M126.93,177.54c.26-3.72,3.23-4.76,5.36-6.6,3.8-3.28,3.64-4.34-.9-6.12-3.68-1.44-7.21-3.63-11.72-2,5-5.62,21.68,1,27.33,10.43-.55.67-1.12.47-1.69,0-6.91-5.25-6.91-5.24-13.58.38C130.15,175,128.53,176.24,126.93,177.54Z" transform="translate(-89.28 -107.03)"/><path class="cls-8" d="M372.32,138.37c-4.5-2.09-6.75.26-8.66,4.27.54-6,6.61-12.08,12.27-12.56-2.33,1.92-5.24,3-6.25,5.78C369.52,136.32,371.39,137.52,372.32,138.37Z" transform="translate(-89.28 -107.03)"/><path class="cls-5" d="M344.44,259.55c-1.3,27.1-13.83,50.24-42.09,62.79-19.54,8.67-39.51,7.25-58.49-1.89-24.67-11.88-42-30.68-47.55-58.05-6.58-32.49,9.34-61.6,40.17-74.15,27.73-11.29,54.67-9.23,78.87,9.08C334.68,211.94,344.1,232.18,344.44,259.55ZM258,229.2a21.35,21.35,0,0,0-19.06,37.58c7.52,5.69,19.19,5.39,26.44-.7s9.89-16,6-23.34c-2.36,5.11-6.09,7.94-11.86,7-4.3-.69-7.34-3.16-8.37-7.46C249.78,236.48,252.33,232.33,258,229.2Z" transform="translate(-89.28 -107.03)"/><path class="cls-9" d="M258,229.2c-5.65,3.13-8.2,7.28-6.82,13.09,1,4.3,4.07,6.77,8.37,7.46,5.77.93,9.5-1.9,11.86-7,3.86,7.37,1.28,17.21-6,23.34s-18.92,6.39-26.44.7A21.35,21.35,0,0,1,258,229.2Z" transform="translate(-89.28 -107.03)"/><ellipse class="cls-2" cx="282.04" cy="214.21" rx="26.36" ry="19.4"/><path class="cls-3" d="M350.64,309.57c-1.31-7.32.82-11.78,8.06-15.81,5.58-3.11,11.51-5.44,17-8.8,6.36-3.87,14.29-4.32,20,1,4.89,4.5,8.57,10.6,11.8,16.53,2.23,4.11.16,8.34-3.24,11.63-2.68,2.59-6.13,3.86-9.27,5.67l-8.69,2.11-2.57,0c-5.2,1.14-10.28-.72-15.44-.6L366,319.77C359.73,318.1,354.42,315,350.64,309.57Zm31.23,9.09c6.49-.37,12.81-1.61,18-6,4.68-3.95,5.08-9.5,1.24-13.6-1-1-1.58-1.64-3.26-.64-9.95,5.91-19.91,4.95-28.21-2.53-.76-.69-1.29-1.56-2.46-1-3.86,1.78-7.42,4-8.73,8.34-1.25,4.13,1.09,7.06,4.14,9.37C368.25,316.86,374.85,318.29,381.87,318.66Z" transform="translate(-89.28 -107.03)"/><path class="cls-9" d="M375.07,338.73c-13.46-.72-11.68-1.73-9.44-13a43.36,43.36,0,0,0,.36-5.94l2.38,1.48c-.13,1.31-.18,2.64-.42,3.94-2,11.17-1.42,11.76,10,10.52,2.87-.31,4.76-1.66,5-4.5.29-3.12,1.42-6.16.86-9.36l2.57,0c-.25,4.62-.2,9.27-1.45,13.79a9,9,0,0,1-5.81,2.57l-2.15.13Z" transform="translate(-89.28 -107.03)"/><path class="cls-10" d="M381.87,318.66c-7-.37-13.62-1.8-19.27-6.08-3.05-2.31-5.39-5.24-4.14-9.37,1.31-4.3,4.87-6.56,8.73-8.34,1.17-.53,1.7.34,2.46,1,8.3,7.48,18.26,8.44,28.21,2.53,1.68-1,2.29-.39,3.26.64,3.84,4.1,3.44,9.65-1.24,13.6C394.68,317.05,388.36,318.29,381.87,318.66Z" transform="translate(-89.28 -107.03)"/><path class="cls-4" d="M383.81,321.85c.56,3.2-.57,6.24-.86,9.36-.26,2.84-2.15,4.19-5,4.5-11.4,1.24-12,.65-10-10.52.24-1.3.29-2.63.42-3.94C373.53,321.13,378.61,323,383.81,321.85Z" transform="translate(-89.28 -107.03)"/><path class="cls-2" d="M214,538.44c5.9-18,38.18-59.45,65-81.43,1.77-1.46,3.59-2.85,5.43-4.2l.18.15,0,.06,3,1.25h.08a27.5,27.5,0,0,0,5.29,0l.34,0a19.83,19.83,0,0,0,2.43-.39c.7-.16,1.4-.29,2.11-.39l2.92-.41,4.85-1.23,4.63-1.66,3.18-1.44c1-.44,1.9-.91,2.82-1.42l2.82-1.54c.61-.34,1.22-.7,1.82-1.08l1.3-.82a13.76,13.76,0,0,1,2-1,13.92,13.92,0,0,1,3.4-.92h0a3.92,3.92,0,0,1,2.63,1.75,12.42,12.42,0,0,0,1.93,1.83,26.86,26.86,0,0,0,13.84,5.68c4.84.54,10.16.66,13.26.68a8.07,8.07,0,0,0,4.51-.31,2.68,2.68,0,0,0,1.7-1.86l0-.14,13.88.36a4.81,4.81,0,0,0,4.16-1s2.81-1.18,5.41-5.61a23.16,23.16,0,0,0,3-9.3l.53-5.27a22.83,22.83,0,0,0-.54-7.9c-.83-3.29-2.41-7.27-6.08-8.5l-10.4-2.95-13.75-.76a26.43,26.43,0,0,0-7-1.58,3.28,3.28,0,0,1,.42-.12c-11-.05-17.73,1.39-20.34,2.09-.56.15-1.14.2-1.71.31h0l-.13,0-.33.08L328,410.54c-.28.07-.56.15-.83.24l-9.63,3.09-8.65,3.29-2.71,1.14a21.94,21.94,0,0,0-2.62,1.29l-3.32,1.9L295,424.93l-6.6,4.69-4.34,3.22-2,1.54a14.2,14.2,0,0,0-2,1.87l-1,1.09h0l0,0h0c-.53.69-.87,1.2-.87,1.2a4.89,4.89,0,0,0-.54,2.32,171.8,171.8,0,0,0-56.42,63.91,199.23,199.23,0,0,0-13.34,33.26ZM385.19,416.59a15,15,0,0,1,.87,2.18,15,15,0,0,0-.87-2.18,9.58,9.58,0,0,0-1.31-2A9.58,9.58,0,0,1,385.19,416.59ZM365.3,421.3c.1-.75.22-1.44.36-2.09.09-.43.19-.83.29-1.21s.12-.44.18-.65c-.06.21-.12.42-.18.65s-.2.78-.29,1.21c-.14.65-.26,1.34-.36,2.09-.06.5-.12,1-.16,1.55C365.18,422.31,365.24,421.8,365.3,421.3Zm-.22,3.28c0,.56,0,1.14,0,1.73C365.08,425.72,365.07,425.14,365.08,424.58ZM366,432a29.09,29.09,0,0,1-.82-4.59A29.09,29.09,0,0,0,366,432Zm2.74,6.88c-.41-.76-.78-1.52-1.11-2.27C368,437.35,368.35,438.11,368.76,438.87Zm5.2,5.28a4.27,4.27,0,0,1-.51-.3A4.27,4.27,0,0,0,374,444.15Zm-2-34.08,9,2.55a6.42,6.42,0,0,1,2.11,1.19,6.42,6.42,0,0,0-2.11-1.19l-9-2.55s-3-.19-4.35,3.4l-.12.3.12-.3C368.89,409.88,371.93,410.07,371.93,410.07Zm-29,4.69a44.93,44.93,0,0,0-1.19,6.86,30.91,30.91,0,0,1,.63-4.71C342.55,416.15,342.74,415.44,342.94,414.76Zm6.54,31.85a16.87,16.87,0,0,0,3.65,2.27A12.51,12.51,0,0,1,349.48,446.61Zm26.74-1.68h0Zm10.15-25.07a19.35,19.35,0,0,1,.54,5A19.35,19.35,0,0,0,386.37,419.86Z" transform="translate(-89.28 -107.03)"/><path class="cls-11" d="M282.54,421.38,267.07,432.8a172.17,172.17,0,0,0-55.78,69.81,199.71,199.71,0,0,0-11.27,34s-4.05,36.44-37,31.5c0,0-21.4-2.42-38.78-8.79s-16.65,2.91-16.65,2.91-3.94,6,35.58,12.77,46.22-1.4,54-5.72,13.55-27.5,19.08-48.59C221,502.42,240.57,475,266,451.37a136.24,136.24,0,0,1,19.16-14.76l9.6-7.66,10.78-8.75-6-8.6Z" transform="translate(-89.28 -107.03)"/><path class="cls-12" d="M393.57,411.44a21.89,21.89,0,0,0-.78-7.51c-.91-3.18-2.74-6.79-6.39-7.86l-10.19-2.47s-3.42-.09-4.72,4c-.16.48-.31,1-.5,1.42-1.16,2.87-5,14.68,3.69,28.23,0,0,6.56,8.14,11,4.08,0,0,2.65-1.24,5-5.59a22.19,22.19,0,0,0,2.56-9.2Z" transform="translate(-89.28 -107.03)"/><path class="cls-13" d="M361.19,394.92s1-4.21-.92-4.82-6.47-1.78-8.8-1.38-5.68,5-7.06,9.56c0,0-6.29,20.92,6.27,35.52,0,0,7,7.13,13.83,4.27a3,3,0,0,0,1.82-2.15Z" transform="translate(-89.28 -107.03)"/><path class="cls-14" d="M362.44,438.49a161.53,161.53,0,0,1-17.84-.07,30,30,0,0,1-15.73-5.76,13.85,13.85,0,0,1-2.25-2c-2-2.35-3.63-1.8-3.63-1.8h0c-1.75.29-3.81.56-5.24,1.6-4.58,3.3-15.9,10.55-28.25,12.07,0,0-5.83-1.36-10.77-3-.66-.22-2.16,3.93-2.73,3.56a6.7,6.7,0,0,1-1.46-1.31s-9.2-8.86-6.45-14.6c0,0,.37-.6,1-1.42,0,0,.14,0,.17-.05a14.83,14.83,0,0,1,3.68-3s19.86-16.37,26.64-18.94c0,0,18.76-7.23,27.61-11.34a22.59,22.59,0,0,1,3-.77c2.89-.9,10.32-2.79,22.68-3.22,0,0-7.2,1.7-9.39,14s3.25,24.61,3.25,24.61S351.27,439.6,362.44,438.49Z" transform="translate(-89.28 -107.03)"/><path class="cls-15" d="M378,434.21a18.7,18.7,0,0,1-7.78-8.18c-6.66-13.36-3.41-24.59-2.07-28.11.29-.77.54-1.55.82-2.32,1.6-4.47,6.69-5.24,6.69-5.24l-15.43-.26c-3.28-.88-6.47-.44-8.92,1.77a15.92,15.92,0,0,0-3.22,4.42,25.72,25.72,0,0,0-2.84,11.54c-.09,6.14.61,17,6.09,23.17,7.92,8.89,14.92,4.76,14.92,4.76l15.68-.19A11.63,11.63,0,0,1,378,434.21Z" transform="translate(-89.28 -107.03)"/><path class="cls-15" d="M387.47,393.21l-11.77-2.85s-5.09.77-6.69,5.24c-.28.77-.53,1.55-.82,2.32-1.34,3.52-4.59,14.75,2.07,28.11a18.7,18.7,0,0,0,7.78,8.18c2.74,1.47,6,2.29,8.44.06,0,0,3.09-1.45,5.81-6.51a25.7,25.7,0,0,0,2.93-10.54l.37-5.93a25.67,25.67,0,0,0-.94-8.81C393.58,398.82,391.63,394.44,387.47,393.21Zm5.32,10.72a22.14,22.14,0,0,1,.78,7.51l-.32,5.09a22.19,22.19,0,0,1-2.56,9.2c-2.35,4.35-5,5.59-5,5.59-4.45,4.06-11-4.08-11-4.08C366,413.69,369.83,401.88,371,399c.19-.46.34-.94.5-1.42,1.3-4.08,4.72-4,4.72-4l10.19,2.47C390.05,397.14,391.88,400.75,392.79,403.93Z" transform="translate(-89.28 -107.03)"/><path class="cls-16" d="M387.26,406.71c-1.8,0-3.31,2.17-3.39,4.94s1.33,5.07,3.12,5.11,3.31-2.16,3.39-4.94S389.05,406.76,387.26,406.71Zm.92,5.05c0,.8-.5,1.44-1.07,1.42s-1-.67-1-1.47.5-1.44,1.07-1.42S388.2,411,388.18,411.76Z" transform="translate(-89.28 -107.03)"/><path class="cls-16" d="M380.4,405.32c-1.79-.05-3.31,2.17-3.38,4.94s1.32,5.07,3.12,5.11,3.31-2.16,3.38-4.94S382.2,405.37,380.4,405.32Zm.9,5.05c0,.8-.5,1.44-1.07,1.42s-1-.67-1-1.47.5-1.43,1.07-1.42S381.32,409.57,381.3,410.37Z" transform="translate(-89.28 -107.03)"/><path class="cls-16" d="M373.23,404.22c-1.79,0-3.31,2.17-3.38,4.94s1.32,5.07,3.12,5.12,3.31-2.17,3.38-4.94S375,404.27,373.23,404.22Zm.9,5.06c0,.8-.5,1.43-1.07,1.42s-1-.68-1-1.48.5-1.43,1.07-1.42S374.15,408.48,374.13,409.28Z" transform="translate(-89.28 -107.03)"/><path class="cls-16" d="M376.29,415.42c-1.8-.05-3.31,2.17-3.38,4.94s1.32,5.07,3.12,5.11,3.31-2.16,3.38-4.94S378.09,415.47,376.29,415.42Zm.9,5.05c0,.8-.5,1.44-1.07,1.42s-1-.67-1-1.47.5-1.43,1.07-1.42S377.21,419.68,377.19,420.47Z" transform="translate(-89.28 -107.03)"/><path class="cls-16" d="M383.51,416.92c-1.8-.05-3.31,2.16-3.39,4.94s1.33,5.06,3.12,5.11,3.32-2.16,3.39-4.94S385.3,417,383.51,416.92Zm.89,5.21c-.17.79-.75,1.33-1.3,1.21s-.88-.84-.72-1.62.74-1.33,1.3-1.21S384.56,421.35,384.4,422.13Z" transform="translate(-89.28 -107.03)"/><path class="cls-16" d="M377.43,398.59c-1.14,0-2.1,1.33-2.14,3s.84,3.11,2,3.14,2.1-1.33,2.14-3S378.57,398.62,377.43,398.59Zm.93,3.3c-.16.76-.74,1.28-1.29,1.16a1.25,1.25,0,0,1-.73-1.57c.16-.76.73-1.28,1.29-1.16A1.25,1.25,0,0,1,378.36,401.89Z" transform="translate(-89.28 -107.03)"/><path class="cls-16" d="M384.91,400c-1.13,0-2.09,1.33-2.14,3s.84,3.11,2,3.14,2.1-1.33,2.15-3S386.05,400,384.91,400Zm.92,3.29c-.15.76-.73,1.28-1.29,1.16a1.24,1.24,0,0,1-.72-1.57c.15-.75.73-1.27,1.28-1.16A1.24,1.24,0,0,1,385.83,403.25Z" transform="translate(-89.28 -107.03)"/><path class="cls-7" d="M323.61,428.85s-2.89-9-8.4-7.39-14,6.23-22.94,6.9-15.74,1.09-17.54,5.67,1.2,9.07,1.2,9.07l3.41,1.27h.09a30.15,30.15,0,0,0,5.93-.19l.38-.05a21,21,0,0,0,2.71-.54h0c.77-.21,1.55-.38,2.34-.52l3.25-.59,5.38-1.58,5.11-2.06,3.49-1.76c1.06-.52,2.09-1.09,3.1-1.7l3.08-1.85c.68-.41,1.35-.84,2-1.28l1.42-1a15.19,15.19,0,0,1,2.22-1.25h0a16,16,0,0,1,3.77-1.18Z" transform="translate(-89.28 -107.03)"/><path class="cls-7" d="M328.24,392.11a39.16,39.16,0,0,0-7.61,7.77,16.48,16.48,0,0,1-13.32,6.79h-.23s-7.14.17-15.86,4.92a56.43,56.43,0,0,0-14.48,11.57s-3.61,4.64-5.51,3.9L269,425.83l1.08-1.31a16.48,16.48,0,0,1,2.16-2.18l2.15-1.81,4.72-3.79,7.19-5.53,5.69-4.08,3.64-2.27a26.69,26.69,0,0,1,2.88-1.56l3-1.39,9.54-4.06L321.69,394c.3-.11.61-.2.92-.29Z" transform="translate(-89.28 -107.03)"/><path class="cls-8" d="M256.68,437.26c-1.3-1.73-1.32-4.58-4.22-4.93a39.57,39.57,0,0,0,9.68,16.92c2,2.18,4.12,4.51,3.69,7.81-.73,5.58-7.17,8.14-11.77,4.25-7.44-6.27-13.05-14-15.27-23.71-2.55,1.72-1.82,3.91-.77,6.06q1.24,2.5,2.53,5a41.09,41.09,0,0,0,6.32,9.05l2.86,3.1a15.86,15.86,0,0,0,9.67,5.11c4.63.55,7.39-1.2,8.47-5.39a13.49,13.49,0,0,0-2.38-11.35Z" transform="translate(-89.28 -107.03)"/><path class="cls-7" d="M252.46,432.33a39.57,39.57,0,0,0,9.68,16.92c2,2.18,4.12,4.51,3.69,7.81-.73,5.58-7.17,8.14-11.77,4.25-7.44-6.27-13.05-14-15.27-23.71a9.64,9.64,0,0,1,2.53-5.73C245.85,426.74,248.15,426.8,252.46,432.33Z" transform="translate(-89.28 -107.03)"/></svg>